# xmcd
#
# Track frame offsets: 
#        150
#        15131
#        30931
#        54039
#        67601
#        83086
#        99045
#        112685
#        128461
#        144002
#
# Disc length: 2190 seconds
#
# Revision: 0
# Processed by: cddbd v1.5.2PL0 Copyright (c) Steve Scherf et al.
# Submitted via: ExactAudioCopy v1.0b1
#
DISCID=4d088c0a
DTITLE=Sie Gubba - Alt Du Vil Ha
DYEAR=2011
DGENRE=
TTITLE0=En god tradisjon
TTITLE1=Det e læng sea no
TTITLE2=Så kom du
TTITLE3=Alt du vil ha
TTITLE4=Fred å ro
TTITLE5=Fløtta fra byen
TTITLE6=Du verdens min
TTITLE7=Ut på livet i kveld
TTITLE8=Vente på trygda mi
TTITLE9=Syng på siste vers
EXTD=
EXTT0=
EXTT1=
EXTT2=
EXTT3=
EXTT4=
EXTT5=
EXTT6=
EXTT7=
EXTT8=
EXTT9=
PLAYORDER=
